<?xml version="1.0" encoding="UTF-8" standalone="no"?><!DOCTYPE svg PUBLIC "-//W3C//DTD SVG 1.1//EN" "http://www.w3.org/Graphics/SVG/1.1/DTD/svg11.dtd"><svg width="100%" height="100%" viewBox="0 0 8892 8892" version="1.1" xmlns="http://www.w3.org/2000/svg" xmlns:xlink="http://www.w3.org/1999/xlink" xml:space="preserve" xmlns:serif="http://www.serif.com/" style="fill-rule:evenodd;clip-rule:evenodd;stroke-linejoin:round;stroke-miterlimit:2;"><path d="M3025.91,4781.55l2379.6,4110.11l-4759.2,0l2379.6,-4110.11Z"/><path d="M3491.59,650.09l1362.24,2355.97l-2724.47,0l1362.24,-2355.97Z"/><path d="M5797.83,8890.65l-1750.31,-3041.2l4844.15,0l0,2826.39c-36.446,119.943 -111.71,191.699 -225.34,215.829l-2868.49,0l0,-1.021Z"/><path d="M3863.24,0l4364.07,0l-179.751,303.516l-2180.45,3768.82l-2180.45,-3768.82l176.585,-303.516Z"/><path d="M3444.71,3351.88l-1515.15,-1.53l-1929.56,3350.07l0,1950.36c24.813,134.086 104.876,215.553 243.867,240.898l3200.85,-5539.79Z"/><path d="M0,6311.42l3638.85,-6311.42l-3407.87,0c-138.402,23.775 -217.097,98.149 -230.98,227.449l0,6083.97Z"/><path d="M8618.85,0l42.082,0c132.543,24.118 211.684,97.711 230.732,226.979l0,5280.38l-3450.99,0l3178.18,-5507.36Z"/><path d="M4918.22,3350.35l-918.087,0c-91.468,5.842 -169.632,54.924 -237.801,136.489l-446.833,758.291c-51.385,116.685 -59.292,230.954 -5.829,341.814l441.746,766.595c57.832,77.078 140.647,129.173 250.902,153.827l874.401,0c132.396,-19.666 228.204,-99.204 296.527,-223.717l404.66,-710.772c46.783,-96.134 36.664,-195.824 2.491,-297.018l-439.807,-758.51c-52.815,-92.194 -128.78,-144.703 -222.37,-166.999Z"/></svg>