<?xml version="1.0" encoding="UTF-8" standalone="no"?><!DOCTYPE svg PUBLIC "-//W3C//DTD SVG 1.1//EN" "http://www.w3.org/Graphics/SVG/1.1/DTD/svg11.dtd"><svg width="100%" height="100%" viewBox="0 0 2136 2136" version="1.1" xmlns="http://www.w3.org/2000/svg" xmlns:xlink="http://www.w3.org/1999/xlink" xml:space="preserve" xmlns:serif="http://www.serif.com/" style="fill-rule:evenodd;clip-rule:evenodd;stroke-linecap:round;stroke-linejoin:round;stroke-miterlimit:1.5;"><g id="Layer1"><path d="M508.286,1358.92l445.604,774.411l-904.273,0c-27.226,-10.201 -43.682,-25.588 -49.617,-46.041l0,-483.234l926.682,-1604.06l366.916,0l-785.312,1358.92Z"/><path d="M0,1510.16l875.096,-1510.16l-824.28,0c-30.572,9.154 -47.404,26.465 -50.816,51.745l0,1458.41Z"/><path d="M2133.33,1320.77l-851.089,0l-330.927,-573.29l437.112,-747.484l692.629,0c30.855,8.458 48.385,27.385 52.275,57.029l0,1263.75Z"/><path d="M1050.01,2133.33l-421.741,-728.78l1505.07,0l0,678.246c-7.635,26.221 -25.155,43.029 -52.443,50.534l-1030.88,0Z" style="stroke:#000;stroke-width:4.17px;"/><path d="M906.145,829.028l285.425,491.746l-386.24,-0.802c-75.612,-19.826 -109.253,-68.598 -93.856,-151.188l194.671,-339.756Z"/></g></svg>